<?xml version="1.0" encoding="UTF-8"?> <svg xmlns="http://www.w3.org/2000/svg" xmlns:xlink="http://www.w3.org/1999/xlink" width="405.24" height="68.088" viewBox="0 0 405.24 68.088"><defs><clipPath id="a"><rect width="405.24" height="68.088" fill="none"></rect></clipPath></defs><g transform="translate(0 0)"><path d="M108.763,0l-3.456,14.557h56.1L164.869,0Z" transform="translate(-31.716 0)" fill="#d60812"></path><path d="M0,0,3.456,14.558h56.1L56.1,0Z" transform="translate(0 0)" fill="#d60812"></path><path d="M78.644,32.363,73.1,53.949,68.539,32.363H23.292l3.874,16.416h26.9l5.8,29.056H85.264l7.849-29.056h26.9l3.874-16.416Z" transform="translate(-7.015 -9.747)" fill="#d60812"></path><path d="M218.758,84.968v8.709h1.974V90.37H224.3V88.783h-3.568V86.488h6.61V84.968Z" transform="translate(-65.884 -25.59)" fill="#d60812"></path><rect width="1.974" height="8.709" transform="translate(193.214 59.378)" fill="#d60812"></rect><path d="M324.7,84.968v1.553h3.9v7.156h1.974V86.522h3.913V84.968Z" transform="translate(-97.791 -25.59)" fill="#d60812"></path><g transform="translate(0 0)"><g clip-path="url(#a)"><path d="M394.056,93.678h-1.349l-6.231-5.385a6.056,6.056,0,0,1-.708-.709c.055.565.082,1.008.082,1.334v4.76h-1.777v-8.71h1.349l5.97,5.132a9.061,9.061,0,0,1,.969.946c-.054-.811-.082-1.312-.082-1.5V84.968h1.777Z" transform="translate(-115.672 -25.59)" fill="#d60812"></path><path d="M455.245,93.678H446.48v-8.71h8.682v1.486h-6.708v1.94h3.913V89.88h-3.913V92.04h6.791Z" transform="translate(-134.467 -25.59)" fill="#d60812"></path><path d="M515.271,91.617a2.2,2.2,0,0,1-.461,1.638,2.472,2.472,0,0,1-1.66.422H507.9a2.276,2.276,0,0,1-1.711-.472,2.9,2.9,0,0,1-.409-1.822l1.741-.372v1.028h6v-1.99h-5.3a2.439,2.439,0,0,1-1.653-.422,2.245,2.245,0,0,1-.454-1.639v-.96a2.243,2.243,0,0,1,.454-1.638,2.439,2.439,0,0,1,1.653-.422h4.818a2.417,2.417,0,0,1,1.659.429,2.332,2.332,0,0,1,.444,1.665l-1.741.419v-.994h-5.559V88.36h5.3a2.488,2.488,0,0,1,1.66.422,2.211,2.211,0,0,1,.461,1.639Z" transform="translate(-152.328 -25.59)" fill="#d60812"></path><path d="M575.8,91.617a2.2,2.2,0,0,1-.461,1.638,2.472,2.472,0,0,1-1.66.422H568.43a2.275,2.275,0,0,1-1.711-.472,2.9,2.9,0,0,1-.409-1.822l1.741-.372v1.028h6v-1.99h-5.3a2.439,2.439,0,0,1-1.653-.422,2.245,2.245,0,0,1-.454-1.639v-.96a2.243,2.243,0,0,1,.454-1.638,2.439,2.439,0,0,1,1.653-.422h4.818a2.417,2.417,0,0,1,1.659.429,2.332,2.332,0,0,1,.444,1.665l-1.741.419v-.994h-5.559V88.36h5.3a2.488,2.488,0,0,1,1.66.422,2.211,2.211,0,0,1,.461,1.639Z" transform="translate(-170.557 -25.59)" fill="#d60812"></path><path d="M263.838,9.044h-34.7v13.67h18.733v9.447H229.135v19.7H218.777V0h45.061Z" transform="translate(-65.889 0)" fill="#fff"></path><path d="M354.693,51.863H310.927V0h10.358V42.113h33.409Z" transform="translate(-93.642 0)" fill="#fff"></path><path d="M450.568,51.863H404.559V0h45.578V8.844h-35.22V20.4h20.544v8.844H414.917V42.113h35.651Z" transform="translate(-121.842 0)" fill="#fff"></path><path d="M554.841,51.863H540.77l-16.316-20.1-15.021,20.1H497.176l21.149-26.636L496.83,0h13.727L524.8,17.589,538.352,0h11.914L530.843,23.821Z" transform="translate(-149.631 0)" fill="#fff"></path></g></g></g></svg> 