<?xml version="1.0" encoding="UTF-8"?>
<svg id="Layer_1" xmlns="http://www.w3.org/2000/svg" baseProfile="tiny" version="1.2" viewBox="0 0 1199.001 129.01">
  <!-- Generator: Adobe Illustrator 29.6.1, SVG Export Plug-In . SVG Version: 2.1.1 Build 9)  -->
  <path d="M0,48.001l5.117-16.352C10.91,18.001,31.452,2.074,46.461,2.074h48.959l1.499,1.498v18.471h-48.46c-11.149,0-28.476,16.288-28.476,27.456v76.378H0V48.001Z" fill="#fff"/>
  <path d="M1199.001,115.893v5.99c-4.441,7.204-15.451,5.978-15.057-3.473.364-8.722,11.015-9.355,15.057-2.517ZM1195.747,123.622c5.694-5.389-1.844-14.416-8.312-9.795-6.971,4.982,2.109,15.666,8.312,9.795Z" fill="#fff"/>
  <path d="M443.63,2.074v19.968h-70.441c-1.384,0-7.494,4.742-7.494,6.49v25.459h68.943l-15.487,19.968h-53.455v26.458c0,2.548,5.993,5.24,8.471,5.518,12.113,1.359,39.648,1.106,52.019.014,7.363-.65,9.769-3.494,14.421-8.554L515.071,2.074h19.484v94.849L606.094,4.17l2.898-2.096h19.484v123.803h-19.983V35.022l-71.448,90.847c-5.943,4.744-13.324,3.997-18.521-1.445-.848-.888-3.952-5.389-3.952-6.035V35.022l-60.979,78.346c-5.767,6.218-14.917,11.631-23.463,12.498-12.625,1.281-49.715,1.659-61.695-.229-14.598-2.301-22.602-16.596-23.157-30.214-.775-19.043-1.269-49.333.394-67.929.989-11.064,14.355-25.419,25.519-25.419h72.44Z" fill="#fff"/>
  <path d="M981.975.37c49.09-4.981,85.318,45.14,65.33,90.241-21.032,47.457-88.031,50.467-113.889,5.619-22.784-39.518,3.131-91.251,48.559-95.86ZM983.958,20.326c-56.617,6.495-49.063,94.616,11.604,87.471,54.717-6.444,45.798-94.057-11.604-87.471Z" fill="#fff"/>
  <path d="M704.207.37c54.566-5.537,90.631,55.795,58.973,100.861-26.823,38.184-84.295,35.3-107.531-5.002-22.861-39.651,3.007-91.238,48.559-95.86ZM706.19,20.326c-34.393,3.945-50.987,44.68-29.265,71.616,19.327,23.966,58.064,20.824,72.635-6.318,16.763-31.225-8.023-69.353-43.369-65.298Z" fill="#fff"/>
  <path d="M173.356,2.074c17.56,2.08,35.66,18.553,37.459,36.452,2.348,23.349-10.886,41.441-32.958,47.908l34.965,39.443h-26.478l-31.468-34.451c-5.559-7.202-4.747-16.846,3.04-21.911,9.132-5.94,19.305.922,28.927-12.03,7.8-10.5,4.401-25.575-6.851-32.09-1.477-.855-7.443-3.352-8.635-3.352h-35.47v103.835h-19.983V2.074h57.452Z" fill="#fff"/>
  <path d="M326.728,2.074v19.968h-69.442c-2.076,0-8.493,5.617-8.493,7.488v24.461h68.943l-15.487,19.968h-53.455v24.461c0,1.383,4.746,7.488,6.495,7.488h71.44v19.968h-74.438c-9.63,0-21.482-14.932-23.035-23.908-2.418-13.976-1.78-56.419-.482-71.476,1.044-12.106,12.52-28.419,25.515-28.419h72.44Z" fill="#fff"/>
  <path d="M1175.021,125.877h-19.983V50.497c0-15.484-17.251-30.483-32.476-30.538-15.494-.056-32.47,14.653-32.47,30.538v75.38h-19.983V49.499c0-24.003,24.36-47.073,47.582-49.3,27.26-2.614,57.331,20.919,57.331,49.3v76.378Z" fill="#fff"/>
  <polygon points="869.276 22.042 833.306 22.042 833.306 125.877 813.322 125.877 813.322 22.042 778.351 22.042 778.351 2.074 867.777 2.074 869.276 3.572 869.276 22.042" fill="#fff"/>
  <rect x="886.261" y="2.074" width="19.983" height="123.803" fill="#fff"/>
  <path d="M92.923,53.991l-14.488,19.968H29.975c2.045-3.378,13.684-19.968,16.486-19.968h46.461Z" fill="#fff"/>
  <path d="M1193.997,122.879l-3.98-2.998-2.002,2.995-.009-7.987c9.933-.675,5.589,1.881,5.992,7.99Z" fill="#fff"/>
</svg>