<?xml version="1.0" encoding="UTF-8"?>
<svg id="Layer_1" xmlns="http://www.w3.org/2000/svg" baseProfile="tiny" version="1.2" viewBox="0 0 708.159 199.306">
  <!-- Generator: Adobe Illustrator 29.6.1, SVG Export Plug-In . SVG Version: 2.1.1 Build 9)  -->
  <polygon points="629.268 38.837 617.274 84.139 625.786 85.628 630.267 103.567 611.792 103.567 608.297 114.521 588.325 114.521 609.296 38.837 629.268 38.837" fill="#fff"/>
  <polygon points="272.762 38.837 259.766 84.135 268.283 85.627 273.76 103.567 253.788 103.567 250.293 114.521 230.82 114.521 251.791 38.837 272.762 38.837" fill="#fff"/>
  <polygon points="102.997 58.754 90.998 103.054 99.867 103.697 103.995 121.492 86.02 121.492 84.023 131.45 64.051 131.45 84.023 58.754 102.997 58.754" fill="#fff"/>
  <rect x="459.503" y="38.837" width="20.971" height="75.683" fill="#fff"/>
  <rect x="513.428" y="38.837" width="20.971" height="75.683" fill="#fff"/>
  <rect x="308.712" y="38.837" width="19.972" height="75.683" fill="#fff"/>
  <rect x="666.217" y="38.837" width="19.972" height="75.683" fill="#fff"/>
  <polygon points="277.755 114.521 265.758 69.195 274.27 38.803 277.733 38.843 298.726 114.521 277.755 114.521" fill="#fff"/>
  <polygon points="635.26 114.521 622.748 69.195 631.173 39.421 633.763 38.821 655.232 114.521 635.26 114.521" fill="#fff"/>
  <path d="M571.348,114.521h-19.972l-15.978-37.344v-38.34c2.833-.351,4.627.125,5.549,2.931l30.401,72.752Z" fill="#fff"/>
  <path d="M133.954,131.45h-19.972l-11.037-41.358c2.954-8.64,3.803-20.694,7.053-28.838,1.43-3.585,3.88-3.705,4.962.011l18.995,70.185Z" fill="#fff"/>
  <polygon points="577.34 38.837 577.34 114.521 573.251 113.899 557.367 77.177 557.367 38.837 577.34 38.837" fill="#fff"/>
  <path d="M495.453,126.471l10.985,17.925v-17.925h11.983v34.854c-4.073-.197-12.495.519-15.942-1.53-3.241-1.927-6.49-14.354-11.021-16.395v16.929h-11.983v-33.858h15.978Z" fill="#fff"/>
  <path d="M267.769,126.471v8.963h-25.964v3.983h17.476c.333,0,6.184,1.332,6.5,1.486,3.623,1.761,3.899,19.427-1.507,19.427h-35.451c.28-3.003-1.113-6.841,1.498-8.962h25.465v-2.988h-16.477c-.619,0-7.179-1.652-7.892-2.088-3.903-2.386-3.799-15.083.024-17.709.484-.332,4.607-2.112,4.872-2.112h31.456Z" fill="#fff"/>
  <path d="M387.103,126.471c1.977.275,6.329,1.951,7.33,3.712.555.976.932,9.759.762,11.238-.881,7.67-7.073,5.301-12.581,7.452l12.977,11.447c-12.755,2.272-18.297-3.109-26.952-10.944l-.005,10.959-11.988.991v-34.854c9.478.944,21.287-1.276,30.458,0ZM382.61,136.429h-13.981v2.987h13.981v-2.987Z" fill="#fff"/>
  <path d="M582.333,135.433h-26.963v15.933h13.981l.935-11.515,12.047-.435v16.431c0,5.628-20.332,5.649-24.457,5.467-3.586-.158-12.632-.789-14.297-3.668-2.021-3.496-2.102-25.881.82-28.674,5.105-4.879,28.733-1.576,36.296-2.364l1.498,1.491.139,7.332Z" fill="#fff"/>
  <path d="M350.654,66.721v18.423c0,1.831,19.643,22.72,22.478,26.38.779,1.005,1.919,1.266,1.489,2.997h-22.469l-21.47-24.398v-23.402h19.972Z" fill="#fff"/>
  <path d="M455.509,126.471v8.963h-23.967v3.983h20.971c-.28,3.003,1.113,6.842-1.498,8.963h-19.473v2.988h23.967l-.01,9.958c-.358.493-1.274-.996-1.488-.996h-32.954c-.304,0-.766,1.261-1.498.996v-34.854h35.95Z" fill="#fff"/>
  <polygon points="670.211 126.471 682.2 126.466 682.195 139.417 696.175 139.417 696.17 126.466 708.159 126.471 708.159 160.329 696.17 160.334 696.175 148.379 682.195 148.379 682.2 160.334 670.211 160.329 670.211 126.471" fill="#fff"/>
  <path d="M352.651,38.837c6.42-.501,16.842.181,19.18,7.253,1.441,4.361,1.457,27.918,0,32.298-2.488,7.483-12.655,7.62-19.18,7.253v-46.804Z" fill="#fff"/>
  <path d="M404.579,38.837v47.8c-8.922-1.563-18.957-.884-20.02-12.401-.437-4.735-.584-24.746.802-28.173,2.709-6.697,12.93-7.981,19.217-7.226Z" fill="#fff"/>
  <path d="M428.546,114.521v-47.8c6.298.803,14.791.693,18.391,7.054,2.446,4.324,2.401,29.324.316,34.006-2.961,6.648-12.409,7.276-18.707,6.739Z" fill="#fff"/>
  <rect x="406.576" y="38.837" width="41.942" height="19.917" fill="#fff"/>
  <rect x="384.607" y="94.604" width="41.942" height="19.917" fill="#fff"/>
  <path d="M87.014,20.91l-.951,8.51c-29.786,4.752-53.586,29.509-58.004,59.166l-7.951.043c3.628-34.571,32.547-63.101,66.906-67.718Z" fill="#fff"/>
  <path d="M28.057,110.584c4.014,30.215,28.959,54.618,58.831,59.838l.13,7.837c-34.241-4.099-63.589-33.4-66.91-67.719l7.949.045Z" fill="#fff"/>
  <path d="M177.895,110.542c-3.776,34.284-32.621,63.606-66.909,67.716l.131-7.837c30.427-5.455,53.84-29.414,58.921-59.754l7.857-.126Z" fill="#fff"/>
  <path d="M177.895,88.625l-7.856-.126c-5.363-29.756-27.861-53.981-58.097-59.079l-.951-8.51c34.369,4.842,62.856,33.305,66.905,67.715Z" fill="#fff"/>
  <polygon points="331.68 126.471 331.685 135.438 318.698 135.433 318.698 160.329 305.716 160.329 305.716 135.433 292.729 135.438 292.734 126.471 331.68 126.471" fill="#fff"/>
  <polygon points="645.246 126.471 645.251 135.438 632.264 135.433 632.264 160.329 620.28 160.329 620.28 136.429 607.235 135.994 606.3 126.471 645.246 126.471" fill="#fff"/>
  <path d="M86.921,151.462l.098,8.871c-24.745-2.569-45.237-24.945-49.488-48.818,1.039-1.429,7.308-1.46,8.607-.54.716.507,4.945,13.106,6.76,16.162,7.088,11.935,20.216,21.919,34.023,24.325Z" fill="#fff"/>
  <path d="M159.922,110.538c-2.436,24.408-24.613,46.906-48.935,49.795l.102-8.867c19.606-3.897,36.698-21.054,39.939-40.83l8.895-.098Z" fill="#fff"/>
  <path d="M159.922,88.629l-8.895-.097c-3.56-20.127-20.235-36.284-39.912-40.862l-.123-8.834c24.573,3.376,46.109,25.255,48.931,49.793Z" fill="#fff"/>
  <path d="M87.014,38.836l-.098,8.865c-19.303,3.914-37.266,21.318-39.846,40.926l-9.979-.005c4.788-24.628,24.568-46.198,49.922-49.787Z" fill="#fff"/>
  <polygon points="94.009 52.779 94.009 0 103.559 .933 103.845 51.132 102.354 52.677 94.009 52.779" fill="#fff"/>
  <path d="M94.009,199.167v-51.285l1.452-1.26h7.083l1.452,1.26v49.792c-2.376,2.73-6.697,1.124-9.986,1.494Z" fill="#fff"/>
  <path d="M145.937,104.562c.371-3.28-1.24-7.589,1.498-9.958h48.932c2.356,2.14,2.357,7.817,0,9.958h-50.43Z" fill="#fff"/>
  <path d="M51.069,104.562H.139c.371-3.28-1.24-7.588,1.498-9.958h48.932c1.79.451,1.022,9.958.499,9.958Z" fill="#fff"/>
  <rect x="481.473" y="94.604" width="20.971" height="19.917" fill="#fff"/>
  <rect x="481.473" y="38.837" width="20.971" height="19.917" fill="#fff"/>
  <rect x="688.186" y="94.604" width="19.972" height="19.917" fill="#fff"/>
  <rect x="330.681" y="38.837" width="19.972" height="19.917" fill="#fff"/>
  <polygon points="502.444 85.642 481.473 85.642 481.473 68.215 482.971 66.721 500.946 66.721 502.444 68.215 502.444 85.642" fill="#fff"/>
  <rect x="406.576" y="66.721" width="19.972" height="18.921" fill="#fff"/>
</svg>