<?xml version="1.0" encoding="UTF-8"?>
<svg id="Layer_1" xmlns="http://www.w3.org/2000/svg" baseProfile="tiny" version="1.2" viewBox="0 0 2877.074 457.687">
  <!-- Generator: Adobe Illustrator 29.6.1, SVG Export Plug-In . SVG Version: 2.1.1 Build 9)  -->
  <path d="M287.326,87.722h-157.648v111.879h158.919c43.226,0,73.739-3.812,90.266-11.44,16.527-7.629,25.428-22.885,25.428-44.498,0-17.801-5.086-30.513-13.985-36.869-16.528-13.985-50.854-19.072-102.979-19.072M129.678,448.787H0V8.9h317.838c73.738,0,128.407,10.17,162.733,31.783,35.598,20.342,53.397,54.667,53.397,101.71,0,31.783-10.171,58.48-30.513,78.822-21.613,22.884-53.396,36.871-94.08,44.497l151.291,184.346h-143.663l-136.035-172.904h-151.291v171.633Z" fill="#fff"/>
  <path d="M687.803,227.572c0,102.978,55.939,155.105,166.547,155.105,111.88,0,167.818-50.854,167.818-152.563,0-102.979-55.938-153.833-167.818-153.833-55.941,0-97.894,13.985-127.136,40.683-26.699,25.429-39.412,62.296-39.412,110.608M853.077,0c94.082,0,166.547,15.256,216.131,44.498,62.296,36.87,94.082,97.895,94.082,184.346,0,152.562-102.98,228.843-308.939,228.843-105.523,0-183.077-19.07-232.658-57.211-49.582-38.141-75.01-95.352-75.01-172.904C546.682,76.281,648.39,0,853.077,0" fill="#fff"/>
  <path d="M1626.06,368.691v-102.979h-171.632v-77.551h303.853v260.626h-278.427c-194.516,0-291.14-71.193-291.14-211.045,0-81.367,25.427-141.118,77.552-177.988,47.04-33.057,118.237-49.584,213.587-49.584h278.427v76.281h-278.427c-47.04,0-81.368,10.172-104.252,29.241-27.968,22.885-41.954,62.296-41.954,116.963,0,45.77,10.17,78.826,30.513,100.44,22.884,24.154,61.025,35.596,114.421,35.596h147.477Z" fill="#fff"/>
  <path d="M1810.408,275.882V8.9h129.678v264.442c0,36.869,7.628,63.567,21.613,78.822,20.342,20.342,59.752,31.783,116.963,31.783,49.584,0,82.639-7.627,102.98-21.611,22.885-16.529,34.326-45.77,34.326-88.994V8.9h128.406v266.983c0,61.025-15.256,104.252-47.039,129.678-39.412,31.783-111.88,48.312-218.674,48.312-104.251,0-176.717-15.256-216.129-47.041-34.327-25.426-52.125-69.924-52.125-130.949" fill="#fff"/>
  <path d="M2877.074,8.9v76.281h-212.316c-91.537,0-139.85,34.326-146.207,102.981h358.523v76.28h-358.523c0,38.141,11.443,66.109,34.328,82.639,22.884,16.527,59.754,24.156,110.608,24.156h212.315v76.281h-217.402c-191.976,0-287.325-71.197-287.325-211.045,0-72.469,20.342-127.136,61.024-164.006,47.04-41.953,124.592-63.566,230.114-63.566h214.86Z" fill="#fff"/>
</svg>