<?xml version="1.0" encoding="UTF-8"?>
<svg id="Layer_1" xmlns="http://www.w3.org/2000/svg" version="1.1" viewBox="0 0 1000 500">
  <!-- Generator: Adobe Illustrator 29.6.1, SVG Export Plug-In . SVG Version: 2.1.1 Build 9)  -->
  <defs>
    <style>
      .st0 {
        fill: #fff;
      }
    </style>
  </defs>
  <g>
    <path class="st0" d="M576.2,77.7c9.1,2.8,17.8,6.4,26.2,10.8,3.8,1.9,7.3,4.2,10.6,6.8,3.3,2.6,5.7,6.1,7.3,10.5.6,1.6,1.6,2.7,3,3.2,1.4.5,2.9.4,4.3-.3,2.5-1.5,3.5-3.6,3-6.5-.4-2.5-1.3-4.7-2.7-6.6-1.4-1.8-3-3.5-4.7-5h0c-6.9-5.4-14.3-9.7-22.2-12.8-15-6.4-34.2-11.4-57.6-15-23.4-3.6-49.6-5.8-78.5-6.6-28.9-.7-59.1,0-90.6,2.4-31.4,2.3-62.6,6.2-93.5,11.8-30.8,5.5-59.9,12.8-87.2,21.7-27.3,8.9-51.3,19.7-72,32.4-20.7,12.6-36.5,27.2-47.4,43.5-9.9,14.7-13.1,30.6-9.6,47.9,2.4,10.5,6.5,20.4,12.4,29.5,8.3,12.5,17.9,24.1,28.6,34.6,11.7,11.4,23.6,22.6,35.7,33.5,7.3,6.5,14.5,13,21.8,19.6,20.2,17.5,40,35.5,59.2,54.1,7.7,7.4,15,15.2,22,23.3,6.5,7.5,9.4,13.2,8.8,17-.7,3.8-3.6,6.4-8.9,7.8-5.2,1.3-11.5,1.8-18.9,1.5-7.1-.3-14.2-1-21.3-2-6.9-1-12.3-1.9-16.3-2.8-.9-.1-1.6-.2-2.2-.2-.3-.1-.7-.2-1.3-.2-3.1-.5-7.8-1.4-14.1-2.7-6.4-1.3-12.6-3.2-18.8-5.4-6.2-2.3-10.8-5.1-13.9-8.5-3-3.3-2.9-7.2.5-11.6,7.7-9.1,17.2-15.3,28.4-18.4,11.2-3.1,22.2-2,32.8,3.3,1.5.9,3.1,1.6,4.8,2.2,1.7.6,3.2.2,4.4-1.3.5-.9.7-1.8.4-2.6-.3-.8-.8-1.4-1.5-1.8-.2-.2-.4-.4-.7-.5-2.6-1.7-5.5-3.2-8.5-4.3-15.3-4.8-30.5-4.4-45.5,1.4-10.4,3.7-19.1,9.6-26.3,17.8-6.7,7.9-6.2,15.5,1.5,22.6,3.8,3.4,10.4,6.7,19.7,10,9.3,3.2,20,6,32,8.3,12,2.3,23.9,3.8,35.7,4.4,11.8.6,22.2.1,31.1-1.6,8.9-1.7,15-4.9,18.2-9.6,3.2-4.7,2.2-11.4-3-20-5-7.5-10.9-14.4-17.5-20.6-1.2-1.1-2.4-2.2-3.5-3.3-12.3-12-24.8-23.8-37.5-35.5-11.3-10.3-22.7-20.5-34.2-30.6-11.7-10.5-23.3-21-34.8-31.5-13.6-11.8-26.1-24.9-37.3-39-7.5-9.5-13.3-20-17.3-31.6-5.6-16.9-3.7-32.9,5.5-48.1,11.1-17.5,27.9-32.6,50.4-45.5,22.6-12.9,48.7-23.6,78.5-32.3,29.8-8.6,61-15.4,93.6-20.4,32.6-4.9,64.4-8.3,95.6-10,31.1-1.7,59.4-2.1,84.7-1.1,25.4,1,45.7,3.1,60.9,6.3,9.2,2.1,18.2,4.5,27.2,7.3Z"/>
    <path class="st0" d="M476.2,329.6c-.9-.1-2.2.2-4,1.1-1.8.9-3.8,1.9-6.2,3.1-3.3,1.9-6.7,3.7-10.1,5.2-3.3,1.4-5.9,1.8-7.7,1.1-1.9-.7-2.2-3.3-1-7.9.1-.7.3-1.5.4-2.2.7-2.6,1.4-5.3,1.9-7.9.5-2.7.6-5.4.3-8.2-.9-6.8-4.8-10-11.9-9.6-3,.1-5.6,1-8.1,2.6-2.8,1.7-5.6,3.5-8.4,5.4-.9.8-1.9,1.5-2.9,2.2-3.6,2.2-5.6,2.9-6,2-.4-.9,0-2.6,1.3-5.2,1.3-2.7,2.7-5.3,4.1-7.9.9-1.6,1.7-3.2,2.6-4.8,10.1-19.9,19.4-40.2,27.9-60.8,1.5-3.8,2.9-7.6,4.3-11.5,0-.3,0-.6.2-.7.3-.7.4-1.4.4-2.1,0-.7-.6-1.3-1.5-1.9-.6-.3-1.5-.3-2.6-.2-1.1.1-2.3.4-3.3.9-1.1.5-1.9,1.1-2.3,1.8-.5.9-.9,1.7-1.3,2.4-.4.7-.7,1.5-.9,2.2-.3.6-.7,1.2-.9,1.7-3,6.5-6,13-9.1,19.5-5.1,11.1-10.2,22.2-15.3,33.3-7,14.9-14,29.7-21.1,44.6-1.7,3.5-3.4,7.1-5.1,10.6-1,1-2,1.9-3.1,2.9-3.3,3.1-6.6,5.2-10,6.4-3.3,1.1-5.8,1.1-7.4,0-1.6-1.1-1.5-4.9.2-11.3.5-1.5.9-2.9,1.3-4.4.7-4-1.1-5.9-5.5-5.9-3.1.3-5.7,1.5-7.8,3.7-4.7,4.3-9.5,8.5-14.4,12.6,0,0,0,0-.2.3-1.3.9-2.5,1.8-3.8,2.8-1.5,1.1-3,2-4.4,2.5-1.5.6-2.8.7-4,.3-.4-.3-.6-.8-.5-1.4,0-.5.2-1.1.5-1.6,5-10.8,12.7-19.3,23.1-25.3,2.2-1.3,4.3-2.2,6.3-2.6,2-.4,3.9.7,5.9,3.4.2.1.3.3.5.3.2,0,.4.1.6.1,1.9.7,3.7.4,5.1-.9,1.1-1.1,1.5-2.4,1.1-3.9-.9-4.9-3.7-7.5-8.3-7.8-4.6-.5-8.9.3-13.1,2.4-7.8,3.6-14.9,8.3-21.3,14.2-2.4,2.4-4.6,4.9-6.6,7.6-.7.3-1.4.7-2.1,1.1-3.3,1.9-6.7,3.7-10.1,5.2-3.3,1.4-5.9,1.8-7.7,1.1-1.9-.7-2.2-3.3-1-7.9.1-.7.3-1.5.4-2.2.7-2.6,1.4-5.3,1.9-7.9.5-2.7.6-5.4.3-8.2-.9-6.8-4.8-10-11.9-9.6-3,.1-5.6,1-8.1,2.6-2.8,1.7-5.6,3.5-8.4,5.4-.9.8-1.9,1.5-2.9,2.2-3.6,2.2-5.6,2.9-6,2-.4-.9,0-2.6,1.3-5.2,1.3-2.7,2.7-5.3,4.1-7.9.9-1.6,1.7-3.2,2.6-4.8,10.1-19.9,19.4-40.2,27.9-60.8,1.5-3.8,2.9-7.6,4.3-11.5,0-.3,0-.6.2-.7.3-.7.4-1.4.4-2.1,0-.7-.6-1.3-1.5-1.9-.6-.3-1.5-.3-2.6-.2-1.1.1-2.3.4-3.3.9-1.1.5-1.9,1.1-2.3,1.8-.5.9-.9,1.7-1.3,2.4-.4.7-.7,1.5-.9,2.2-.3.6-.7,1.2-.9,1.7-3,6.5-6,13-9.1,19.5-5.1,11.1-10.2,22.2-15.3,33.3-7,14.9-14,29.7-21.1,44.6-4.2,8.6-8.2,17.3-12.2,26-.7,1.6-.7,2.9.1,3.9.8.9,2.1,1.4,3.9,1.4s3.5-.5,4.7-1.4c1.3-.9,2.4-2.2,3.2-3.6,6.9-10.8,15.3-20.5,25-28.8,7-6.2,11.8-9.9,14.5-11,2.7-1.1,3.8.1,3.5,3.7-.3,3.6-1.4,9.2-3.3,16.8-1.3,5.4-1,9.6.9,12.6,2,3,6.5,3.5,13.5,1.4,4.7-1.6,8.8-3.2,12.2-4.7.2-.1.5-.2.7-.3-1.8,4.2-1.9,7.5-.3,10,1.6,2.5,4.7,3.9,9.3,4.2,6.2.3,11.9-1.1,17.2-4.2,2.2-1.3,6.6-4.7,13.1-10.4.3,12.6,8.5,15.9,24.6,10.2.4-.2.8-.4,1.2-.6-.2.4-.3.7-.5,1.1-.7,1.6-.7,2.9.1,3.9.8.9,2.1,1.4,3.9,1.4s3.5-.5,4.7-1.4c1.3-.9,2.4-2.2,3.2-3.6,6.9-10.8,15.3-20.5,25-28.8,7-6.2,11.8-9.9,14.5-11,2.7-1.1,3.8.1,3.5,3.7-.3,3.6-1.4,9.2-3.3,16.8-1.3,5.4-1,9.6.9,12.6,2,3,6.5,3.5,13.5,1.4,4.7-1.6,8.8-3.2,12.2-4.7,3.5-1.6,7.4-3.7,11.6-6.4,1.4-.9,2.6-1.8,3.8-2.9,1-1,1.6-2,1.7-3.1.1-1.1-.6-1.7-2.2-2Z"/>
    <path class="st0" d="M614.8,289c-1.9,2.6-3.4,4.9-4.6,7-1.2,2.1-2.3,4.6-3.4,7.4-.6,1.6-.6,2.7.1,3.2.7.5,1.6.7,2.8.6,1.2-.2,2.3-.4,3.3-.8,1-.4,1.7-.7,2.1-1h0c3.8-3.8,6.5-8.4,8-13.7.4-1.5.1-2.6-.8-3.5-.9-.8-2.1-1.2-3.5-1.1-1.4,0-2.7.7-3.9,1.9Z"/>
    <path class="st0" d="M818,296c-1.2,2.1-2.3,4.6-3.4,7.4-.6,1.6-.6,2.7.1,3.2.7.5,1.6.7,2.8.6,1.2-.2,2.3-.4,3.3-.8,1-.4,1.7-.7,2.1-1h0c3.8-3.8,6.5-8.4,8-13.7.4-1.5.1-2.6-.8-3.5-.9-.8-2.1-1.2-3.5-1.1-1.4,0-2.7.7-3.9,1.9-1.9,2.6-3.4,4.9-4.6,7Z"/>
    <path class="st0" d="M927.8,307.2c1.2-.2,2.3-.4,3.3-.8,1-.4,1.7-.7,2.1-1h0c3.8-3.8,6.5-8.4,8-13.7.4-1.5.1-2.6-.8-3.5-.9-.8-2.1-1.2-3.5-1.1-1.4,0-2.7.7-3.9,1.9-1.9,2.6-3.4,4.9-4.6,7-1.2,2.1-2.3,4.6-3.4,7.4-.6,1.6-.6,2.7.1,3.2.7.5,1.6.7,2.8.6Z"/>
    <path class="st0" d="M946.9,334.4c-6.8,6.3-13.8,10.6-21,13-7.2,2.3-10.8,2.2-10.8-.5,1-4.7,2.6-9.3,4.9-13.5.4-.7,1.2-2.3,2.4-4.7,1.2-2.4,2.3-4.8,3.3-7.3.3-1.3-.2-2.3-1.3-3.2-1.1-.8-2.4-1.1-3.9-.7-2,.6-3.6,1.6-4.6,3.1-2.4,3.5-4.5,7.1-6.4,10.8-.6.4-1.2.7-1.8,1.1-.7.3-1.5.7-2.2,1.1-9.3,5.4-19.4,9.3-30,11.6-3.4.9-6.8,1.3-10.3,1.2-3.5,0-6.9-.8-10.3-2.3-4.2-2.3-4.6-5.3-1.1-8.9,1.5-1.3,3.1-2.5,4.9-3.5,2.5-1.3,5.1-2.6,7.7-3.8,2.6-1.3,5.2-2.5,7.8-3.7,5.2-2.7,10.3-5.5,15.3-8.5.5-.3.9-.7,1.2-1.2.3-.5.3-1.2,0-1.9-.6-1.2-1.5-1.7-2.8-1.7-3.3.1-6.3,1-9.2,2.6-.5.2-.9.4-1.3.7-2.4,1-4.7,2.2-7.1,3.5-3.3,1.7-6.2,3.1-8.7,4.2-2.5,1-4.1.9-4.7-.3-.7-1.2.2-4.3,2.5-9,11.1-22.2,21.3-44.8,30.6-67.9,1.9-5,3.6-10,5.2-15,.9-2.4.2-4.1-2.2-5.1-2.4-.7-4.2-.3-5.6,1.3-1.7,2.2-3.1,4.7-4.1,7.6-12.6,29.1-25.8,58-39.7,86.5-2.3,4.7-4.5,9.4-6.7,14.1-.2.1-.3.3-.5.4-6.8,6.3-13.8,10.6-21,13-7.2,2.3-10.8,2.2-10.8-.5,1-4.7,2.6-9.3,4.9-13.5.4-.7,1.2-2.3,2.4-4.7,1.2-2.4,2.3-4.8,3.3-7.3.3-1.3-.2-2.3-1.3-3.2-1.1-.8-2.4-1.1-3.9-.7-2,.6-3.6,1.6-4.6,3.1-2.3,3.3-4.3,6.8-6.1,10.3-.1.1-.2.2-.3.3-5.3,5.1-11.2,9.6-17.5,13.3-.3.1-.5.3-.6.5-.9.4-1.7.7-2.6,1.1-.8.3-1.6.2-2.3-.3-1.1-.9-1.7-1.9-1.7-3.1,0-1.2.2-2.4.6-3.6,1.5-5.4,3.3-10.8,5.5-15.9,1.8-4.4,3.6-8.8,5.3-13.3,5.3-12.8,10.7-25.5,16.2-38.3,5.5-12.7,11.3-25.2,17.5-37.6,1.2-2.6,2.3-5.3,3.1-8.1.5-1.1.3-2-.5-2.7-.8-.7-1.9-1-3.2-1h-.9c-1.2,0-2.3.1-3.5.4-1.1.2-2,.9-2.8,2.1-1.6,2.4-3.1,4.8-4.4,7.4-4.5,8.2-9.1,16.4-13.7,24.6-5.7,10.3-11.3,20.6-16.8,30.8-3,5.3-6,10.7-9.1,15.9-.6,1.1-1.2,2.1-1.8,3.1-1.5,2.7-3.8,3.6-7,2.6-11.4-1.8-21.6.4-30.5,6.4-6.1,4.1-10.8,9.5-14.1,16.2-5.1,4.9-10.8,9.2-16.9,12.7-.3.1-.5.3-.6.5-.9.4-1.7.7-2.6,1.1-.8.3-1.6.2-2.3-.3-1.1-.9-1.7-1.9-1.7-3.1,0-1.2.2-2.4.6-3.6,1.5-5.4,3.3-10.8,5.5-15.9,1.8-4.4,3.6-8.8,5.3-13.3,5.3-12.8,10.7-25.5,16.2-38.3,5.5-12.7,11.3-25.2,17.5-37.6,1.2-2.6,2.3-5.3,3.1-8.1.5-1.1.3-2-.5-2.7-.8-.7-1.9-1-3.2-1h-.9c-1.2,0-2.3.1-3.5.4-1.1.2-2,.9-2.8,2.1-1.6,2.4-3.1,4.8-4.4,7.4-4.5,8.2-9.1,16.4-13.7,24.6-5.7,10.3-11.3,20.6-16.8,30.8-3,5.3-6,10.7-9.1,15.9-.6,1.1-1.2,2.1-1.8,3.1-1.5,2.7-3.8,3.6-7,2.6-11.4-1.8-21.6.4-30.5,6.4-6.8,4.6-11.9,10.8-15.2,18.6-.1.1-.2.2-.3.3-6.8,6.3-13.8,10.6-21,13-7.2,2.3-10.8,2.2-10.8-.5,1-4.7,2.6-9.3,4.9-13.5.4-.7,1.2-2.3,2.4-4.7,1.2-2.4,2.3-4.8,3.3-7.3.3-1.3-.2-2.3-1.3-3.2-1.1-.8-2.4-1.1-3.9-.7-2,.6-3.6,1.6-4.6,3.1-1.1,1.6-2.1,3.2-3.1,4.9-.4,0-.9.2-1.4.4-18,6.7-27.5,10.1-28.6,10.3-1,.2-1.9-.3-2.7-1.4-.7-1.1-1.7-3.1-2.8-6.1-.5-1.1-1-2.3-1.6-3.5-.9-2.1-1.4-4.2-1.5-6.5,0-1.8.3-3.6.9-5.4.9-2.2,2.2-3.6,4-4.1,1.8-.5,3.6-.1,5.3,1.1.5.3.9.8,1.3,1.4.4.3.7.6,1.1.8v.3c.8.7,1.7,1.3,2.7,1.7,1.5.8,2.9.6,4.1-.4,1.9-1.5,2.3-3.1,1.1-4.9-1.5-2.6-3.5-4.4-6-5.4-2.5-1-5.3-1.4-8.5-1.3-5.6.2-9.7,1.6-12.4,4.3-2.7,2.7-4.1,5.9-4.3,9.8-.2,3.9.5,7.9,2.3,11.9.9,2.2,1.9,4.4,2.7,6.5.4.9.8,1.7,1.1,2.6,1,2.5.2,4.7-2.3,6.8-2.5,2-7.5,5.3-15,9.9-7.5,4.6-12.1,9.1-13.9,13.5-1.8,4.4-.4,8.1,4.2,11,4.6,2.9,13.7,2.8,27.3-.3,13.6-3.1,20.2-8.5,19.7-16.3-.3-3.8-1.2-7.6-2.6-11.1-.2-.3-.3-.5-.3-.6-1.3-3-1.7-5-1.2-6.1.5-1.1,2.5-2.5,5.9-4.2,3.8-2,9.5-4.5,17.1-7.4-1.5,3.2-2.9,6.4-4,9.7-2.1,7.4-1.4,12.2,2,14.3,3.4,2.2,8.2,2.6,14.4,1.4,6.2-1.2,11.7-3.7,16.6-7.2,2.2-1.6,4.2-3.2,6.1-4.9,0,1.3,0,2.7.1,4,.9,7,4.9,10.3,12.2,10,4.4-.1,8.6-1.4,12.6-3.7,6.6-4,12.6-9.1,17.7-14.9,2.8-3.1,5.6-6.2,8.3-9.5.4-.5.8-.9,1.3-1.3,1.8-2.2,2.8-3.1,3.2-2.8.4.4.1,2.2-.7,5.4-.1.9-.4,1.7-.7,2.6-.5,1.8-1,3.7-1.3,5.5-.7,8.9,3.4,13.2,12.4,13.1,3.9-.1,7.4-1.1,10.5-2.8,3.1-1.5,6-3.3,8.7-5.4,0,1.3,0,2.5.1,3.8.9,7,4.9,10.3,12.2,10,4.4-.1,8.6-1.4,12.6-3.7,6.6-4,12.6-9.1,17.7-14.9,2.8-3.1,5.6-6.2,8.3-9.5.4-.5.8-.9,1.3-1.3,1.8-2.2,2.8-3.1,3.2-2.8.4.4.1,2.2-.7,5.4-.1.9-.4,1.7-.7,2.6-.5,1.8-1,3.7-1.3,5.5-.7,8.9,3.4,13.2,12.4,13.1,3.9-.1,7.4-1.1,10.5-2.8,2.8-1.4,5.4-3,7.9-4.8-.7,4.9.3,8.3,3,10,3.4,2.2,8.2,2.6,14.4,1.4,6.2-1.2,11.7-3.7,16.6-7.2.9-.7,1.8-1.4,2.7-2-.4.8-.7,1.6-1.1,2.4-1.8,4.2-3.7,8.4-5.6,12.7-.8,1.8-1.5,3.8-2,5.7,0,.6.2,1.2.5,1.8.3.6.6,1,1,1.4.5.3,1,.4,1.6.4s1.2,0,1.7-.2c1.1-.3,1.8-.7,2.3-1.4.4-.7.9-1.4,1.4-2.1.1-.3.3-.6.4-.9,1.2-2.2,2.3-4.4,3.3-6.5,2.1-3.7,4-7.3,6-11.1,1.3-2.6,3.4-3.3,6.3-2,7.7,3.4,15.7,4.7,24.2,3.8,10.7-1.1,21.1-3.9,30.9-8.5,1.2-.5,2.5-1.1,3.6-1.7-2,7.2-1.3,11.9,2.1,14.1,3.4,2.2,8.2,2.6,14.4,1.4,6.2-1.2,11.7-3.7,16.6-7.2,4.9-3.6,9.2-7.5,12.8-11.8h0c3.6-4.3,5.5-7.7,5.9-10.3.3-2.6-2.9-.7-9.7,5.5ZM553.1,369c-6.7,2.4-13.4,3.1-20.4,2-.9,0-1.5-.3-1.8-1-.3-.7-.2-1.3.2-1.8.1-.2.2-.3.2-.3.3-.4.7-.8,1.1-1.3,5.9-5.3,12.4-10,19.4-13.9,2.8-1.5,4.6-1.5,5.4-.1.8,1.4,1.3,3.3,1.6,5.9.1.4.2.8.2,1.1.7,4.7-1.2,7.9-5.9,9.5ZM671.6,322.1h0c-.5.6-2.4,2.9-5.7,6.9-3.3,4-7.1,8.2-11.3,12.6-4.2,4.4-8,7.6-11.4,9.6-3.4,2-5.4,1.4-6-1.9v-1.8c0-.1,0-.4-.2-.7.4-7.1,2.9-13.5,7.6-19.4,4.7-5.8,10.5-9.8,17.4-11.9,2.8-1,5.5-.8,8,.5,1.2.5,2,1.3,2.3,2.5.3,1.1,0,2.3-.6,3.5ZM755.9,322.1h0c-.5.6-2.4,2.9-5.7,6.9-3.3,4-7.1,8.2-11.3,12.6-4.2,4.4-8,7.6-11.4,9.6-3.4,2-5.4,1.4-6-1.9v-1.8c0-.1,0-.4-.2-.7.4-7.1,2.9-13.5,7.6-19.4,4.7-5.8,10.5-9.8,17.4-11.9,2.8-1,5.5-.8,8,.5,1.2.5,2,1.3,2.3,2.5.3,1.1,0,2.3-.6,3.5Z"/>
  </g>
  <g>
    <polygon class="st0" points="328.5 432 320.8 405.2 315.4 405.2 307.5 432 300.1 405.2 294.7 405.2 304.7 437.1 310.2 437.1 317.9 411.8 325.6 437.1 331 437.1 341 405.2 335.8 405.2 328.5 432"/>
    <path class="st0" d="M368.1,406.6c-2.3-1.3-5-2-8-2s-5.8.7-8.2,2-4.2,3.3-5.6,5.7c-1.3,2.5-2,5.4-2,8.7s.7,6.2,2,8.7c1.4,2.5,3.2,4.4,5.6,5.8,2.4,1.4,5.1,2,8.1,2s7-1,9.5-2.9c2.6-1.9,4.3-4.4,5.1-7.5h-5.7c-.6,1.8-1.7,3.2-3.2,4.3s-3.4,1.6-5.7,1.6-5.2-.9-7.1-2.6-3-4.2-3.2-7.4h25.5c.1-1.1.2-2.2.2-3.2,0-2.9-.6-5.5-1.9-7.8-1.3-2.3-3.1-4.1-5.4-5.4ZM349.7,418.8c.3-3,1.3-5.4,3.2-7.1,1.9-1.7,4.2-2.6,6.8-2.6s3.6.4,5.1,1.1c1.5.8,2.7,1.9,3.6,3.3.9,1.5,1.3,3.2,1.3,5.2h-20.1Z"/>
    <path class="st0" d="M407.3,406.7c-2.3-1.4-4.9-2-7.7-2s-5.1.6-7.2,1.8c-2.1,1.2-3.7,2.8-4.8,4.7v-17.1h-5.3v43.1h5.3v-5.9c1,1.9,2.6,3.4,4.7,4.6,2.1,1.2,4.5,1.8,7.2,1.8s5.4-.7,7.7-2.1c2.3-1.4,4.1-3.4,5.4-5.9,1.3-2.5,2-5.4,2-8.6s-.7-6.1-2-8.6c-1.3-2.5-3.1-4.4-5.4-5.7ZM407.8,427.4c-1,1.8-2.3,3.2-3.9,4.1-1.7,1-3.5,1.4-5.4,1.4s-3.7-.5-5.4-1.4c-1.7-1-3-2.3-4-4.1-1-1.8-1.5-3.9-1.5-6.3s.5-4.5,1.5-6.3c1-1.8,2.3-3.2,4-4.1,1.6-1,3.4-1.4,5.4-1.4s3.8.5,5.4,1.4c1.6.9,3,2.3,3.9,4.1,1,1.8,1.5,3.9,1.5,6.3s-.5,4.6-1.5,6.4Z"/>
    <path class="st0" d="M439.3,421c-1.4-.6-3.3-1.2-5.6-1.8-1.8-.5-3.3-1-4.3-1.4-1-.4-1.9-1-2.6-1.6s-1-1.5-1-2.6.6-2.4,1.7-3.2c1.1-.8,2.6-1.2,4.5-1.2s3.7.5,4.9,1.5c1.2,1,1.9,2.3,2,4h5.3c-.2-3.1-1.3-5.5-3.5-7.3-2.2-1.8-5-2.7-8.6-2.7s-4.3.4-6.1,1.2-3.2,1.9-4.1,3.2-1.5,2.9-1.5,4.5.5,3.7,1.6,5,2.3,2.2,3.8,2.9c1.5.6,3.4,1.3,5.8,1.9,2.6.7,4.5,1.3,5.8,2,1.2.7,1.9,1.7,1.9,3.1s-.6,2.5-1.7,3.4-2.8,1.3-4.8,1.3-3.9-.5-5.3-1.5c-1.3-1-2.1-2.3-2.2-3.9h-5.5c.1,1.9.7,3.7,1.9,5.2,1.1,1.5,2.7,2.7,4.6,3.5,1.9.8,4.1,1.3,6.6,1.3s4.3-.4,6.1-1.2c1.8-.8,3.1-1.9,4.1-3.3,1-1.4,1.5-3,1.5-4.7,0-1.9-.6-3.5-1.6-4.7s-2.3-2.1-3.7-2.7Z"/>
    <rect class="st0" x="452.1" y="405.2" width="5.3" height="31.9"/>
    <path class="st0" d="M454.8,392.8c-1,0-1.9.3-2.6,1-.7.7-1,1.6-1,2.6s.3,1.9,1,2.6,1.6,1,2.6,1,1.8-.3,2.5-1c.7-.7,1-1.6,1-2.6s-.3-1.9-1-2.6-1.5-1-2.5-1Z"/>
    <path class="st0" d="M472.8,397.2h-5.3v8h-4.1v4.4h4.1v18.8c0,3.1.7,5.3,2.2,6.7,1.5,1.4,3.7,2,6.6,2h4.8v-4.5h-3.9c-1.6,0-2.8-.3-3.4-1-.7-.6-1-1.7-1-3.3v-18.8h8.3v-4.4h-8.3v-8Z"/>
    <path class="st0" d="M509.4,406.6c-2.3-1.3-5-2-8-2s-5.9.7-8.2,2-4.2,3.3-5.6,5.7c-1.3,2.5-2,5.4-2,8.7s.7,6.2,2,8.7c1.4,2.5,3.2,4.4,5.6,5.8,2.4,1.4,5.1,2,8.1,2s7-1,9.5-2.9c2.6-1.9,4.3-4.4,5.1-7.5h-5.7c-.6,1.8-1.7,3.2-3.2,4.3s-3.4,1.6-5.7,1.6-5.2-.9-7.1-2.6-3-4.2-3.2-7.4h25.5c.1-1.1.2-2.2.2-3.2,0-2.9-.6-5.5-1.9-7.8-1.3-2.3-3.1-4.1-5.4-5.4ZM491.1,418.8c.3-3,1.3-5.4,3.2-7.1,1.9-1.7,4.2-2.6,6.8-2.6s3.6.4,5.1,1.1c1.5.8,2.7,1.9,3.6,3.3.9,1.5,1.3,3.2,1.3,5.2h-20.1Z"/>
    <path class="st0" d="M564.2,406.7c-2.3-1.4-4.9-2-7.7-2s-5.1.6-7.2,1.8c-2.1,1.2-3.7,2.8-4.8,4.7v-17.1h-5.3v43.1h5.3v-5.9c1,1.9,2.6,3.4,4.7,4.6,2.1,1.2,4.5,1.8,7.2,1.8s5.4-.7,7.7-2.1c2.3-1.4,4.1-3.4,5.4-5.9,1.3-2.5,2-5.4,2-8.6s-.7-6.1-2-8.6c-1.3-2.5-3.1-4.4-5.4-5.7ZM564.7,427.4c-1,1.8-2.3,3.2-3.9,4.1-1.7,1-3.5,1.4-5.4,1.4s-3.7-.5-5.4-1.4c-1.7-1-3-2.3-4-4.1-1-1.8-1.5-3.9-1.5-6.3s.5-4.5,1.5-6.3c1-1.8,2.3-3.2,4-4.1,1.6-1,3.4-1.4,5.4-1.4s3.8.5,5.4,1.4c1.6.9,3,2.3,3.9,4.1,1,1.8,1.5,3.9,1.5,6.3s-.5,4.6-1.5,6.4Z"/>
    <path class="st0" d="M601.5,422.7c0,3.3-.8,5.9-2.4,7.6-1.6,1.7-3.9,2.6-6.7,2.6s-4.9-.8-6.5-2.5c-1.6-1.7-2.4-4.1-2.4-7.2v-18h-5.2v18.7c0,3,.6,5.5,1.7,7.5,1.1,2.1,2.7,3.6,4.7,4.6,2,1,4.2,1.5,6.7,1.5s4.2-.5,6-1.4c1.8-.9,3.2-2.2,4.2-3.8v4.7h5.3v-31.9h-5.3v17.5Z"/>
    <path class="st0" d="M618.5,392.8c-1,0-1.9.3-2.6,1-.7.7-1,1.6-1,2.6s.3,1.9,1,2.6,1.6,1,2.6,1,1.8-.3,2.5-1c.7-.7,1-1.6,1-2.6s-.3-1.9-1-2.6-1.5-1-2.5-1Z"/>
    <rect class="st0" x="615.8" y="405.2" width="5.3" height="31.9"/>
    <rect class="st0" x="630.1" y="394" width="5.3" height="43.1"/>
    <path class="st0" d="M650.9,397.2h-5.3v8h-4.1v4.4h4.1v18.8c0,3.1.7,5.3,2.2,6.7,1.5,1.4,3.7,2,6.6,2h4.8v-4.5h-3.9c-1.6,0-2.8-.3-3.4-1-.7-.6-1-1.7-1-3.3v-18.8h8.3v-4.4h-8.3v-8Z"/>
    <path class="st0" d="M706.1,406.7c-2.3-1.4-4.9-2-7.7-2s-5.1.6-7.2,1.8c-2.1,1.2-3.7,2.8-4.8,4.7v-17.1h-5.3v43.1h5.3v-5.9c1,1.9,2.6,3.4,4.7,4.6,2.1,1.2,4.5,1.8,7.2,1.8s5.4-.7,7.7-2.1c2.3-1.4,4.1-3.4,5.4-5.9,1.3-2.5,2-5.4,2-8.6s-.7-6.1-2-8.6c-1.3-2.5-3.1-4.4-5.4-5.7ZM706.7,427.4c-1,1.8-2.3,3.2-3.9,4.1-1.7,1-3.5,1.4-5.4,1.4s-3.7-.5-5.4-1.4c-1.7-1-3-2.3-4-4.1-1-1.8-1.5-3.9-1.5-6.3s.5-4.5,1.5-6.3c1-1.8,2.3-3.2,4-4.1,1.6-1,3.4-1.4,5.4-1.4s3.8.5,5.4,1.4c1.6.9,3,2.3,3.9,4.1,1,1.8,1.5,3.9,1.5,6.3s-.5,4.6-1.5,6.4Z"/>
    <polygon class="st0" points="742.5 405.2 732.6 431 722.6 405.2 716.7 405.2 729.6 436.7 723.3 452.1 728.8 452.1 748 405.2 742.5 405.2"/>
  </g>
</svg>